# xmcd
#
# Track frame offsets: 
#        150
#        18020
#        30142
#        47651
#        61909
#        82305
#        102035
#        120744
#        137128
#        154810
#        175123
#        197768
#        218188
#        230557
#        247990
#        264094
#        291471
#
# Disc length: 4148 seconds
#
# Revision: 0
# Processed by: cddbd v1.5.2PL0 Copyright (c) Steve Scherf et al.
# Submitted via: ExactAudioCopy v0.95a4
#
DISCID=e3103211
DTITLE=Willie Buck - Willie Buck Way
DYEAR=2017
DGENRE=Blues
TTITLE0=You Want Me To Trust You
TTITLE1=(All I'm Doin' Is) Thinking Of You
TTITLE2=Bottom Of The Hill
TTITLE3=I Got You (And You Got Me)
TTITLE4=Can't Say Something Good About Me
TTITLE5=There's A Woman
TTITLE6=My Mind Froze Up
TTITLE7=Crawlin' King Snake
TTITLE8=I Give So Much To You
TTITLE9=Heck Of A Time
TTITLE10=The Men Ought To Learn (To Treat Women Right)
TTITLE11=Please Have Mercy
TTITLE12=How Deep Is The Ocean
TTITLE13=Willie Buck Way
TTITLE14=Twenty-Four Seven
TTITLE15=Blues Before Sunrise
TTITLE16=I'd Rather Leave You
EXTD=
EXTT0=
EXTT1=
EXTT2=
EXTT3=
EXTT4=
EXTT5=
EXTT6=
EXTT7=
EXTT8=
EXTT9=
EXTT10=
EXTT11=
EXTT12=
EXTT13=
EXTT14=
EXTT15=
EXTT16=
PLAYORDER=
